<svg xmlns="http://www.w3.org/2000/svg" width="16" height="16" viewBox="0 0 16 16">
  <g id="Group_129122" data-name="Group 129122" transform="translate(-165 -639)">
    <path id="Path_115805" data-name="Path 115805" d="M8,0H8A8,8,0,0,0,1.523,12.689l-1,2.972L3.6,14.678A8,8,0,1,0,8,0Z" transform="translate(165 639)" fill="#4caf50"/>
    <path id="Path_115806" data-name="Path 115806" d="M116.569,124.726a2.257,2.257,0,0,1-1.57,1.129c-.418.089-.964.16-2.8-.6a10.022,10.022,0,0,1-3.983-3.518,4.569,4.569,0,0,1-.95-2.413,2.554,2.554,0,0,1,.818-1.947,1.162,1.162,0,0,1,.818-.287c.1,0,.188,0,.268.009.235.01.353.024.508.4.193.465.663,1.613.719,1.731a.476.476,0,0,1,.034.433,1.383,1.383,0,0,1-.259.367c-.118.136-.23.24-.348.386-.108.127-.23.263-.094.5a7.1,7.1,0,0,0,1.3,1.613,5.882,5.882,0,0,0,1.876,1.157.506.506,0,0,0,.564-.089,9.68,9.68,0,0,0,.625-.828.447.447,0,0,1,.574-.174c.216.075,1.359.64,1.594.757s.39.174.447.273A1.992,1.992,0,0,1,116.569,124.726Z" transform="translate(61.088 525.571)" fill="#fafafa"/>
  </g>
</svg>
