<svg xmlns="http://www.w3.org/2000/svg" width="16" height="16" viewBox="0 0 16 16">
  <g id="comment-2" transform="translate(-60.041 -60.041)">
    <g id="Group_13149" data-name="Group 13149" transform="translate(60.041 60.041)">
      <g id="Group_13144" data-name="Group 13144" transform="translate(0 0)">
        <path id="Path_115797" data-name="Path 115797" d="M68.041,76.041H62.38a.822.822,0,0,1-.687-1.357l.711-.966a8,8,0,1,1,5.636,2.323Zm0-1.225a6.775,6.775,0,1,0-4.419-1.64l.43.37-.934,1.269Z" transform="translate(-60.041 -60.041)"/>
      </g>
      <g id="Group_13148" data-name="Group 13148" transform="translate(4.162 7.148)">
        <g id="Group_13145" data-name="Group 13145">
          <path id="Path_115798" data-name="Path 115798" d="M163.7,235.971a.852.852,0,1,1-.852-.852A.852.852,0,0,1,163.7,235.971Z" transform="translate(-162 -235.119)"/>
        </g>
        <g id="Group_13146" data-name="Group 13146" transform="translate(2.986 0)">
          <circle id="Ellipse_1" data-name="Ellipse 1" cx="0.852" cy="0.852" r="0.852"/>
        </g>
        <g id="Group_13147" data-name="Group 13147" transform="translate(5.971 0)">
          <circle id="Ellipse_2" data-name="Ellipse 2" cx="0.852" cy="0.852" r="0.852"/>
        </g>
      </g>
    </g>
  </g>
</svg>
