<svg xmlns="http://www.w3.org/2000/svg" width="20" height="20" viewBox="0 0 20 20">
  <g id="_02-shop" data-name="02-shop" transform="translate(0 0)">
    <g id="Glyph" transform="translate(0 0)">
      <path id="Path_115825" data-name="Path 115825" d="M20,32H0v.833A1.667,1.667,0,0,0,1.667,34.5h2.5a1.667,1.667,0,0,0,1.667-1.667A1.667,1.667,0,0,0,7.5,34.5h5a1.667,1.667,0,0,0,1.667-1.667A1.667,1.667,0,0,0,15.833,34.5h2.5A1.667,1.667,0,0,0,20,32.833V32Z" transform="translate(0 -25.333)" fill="#a7aabc"/>
      <path id="Path_115826" data-name="Path 115826" d="M71.791,5.833,70.3.6a.833.833,0,0,0-.8-.6H65.679l1.167,5.833Z" transform="translate(-51.996 0)" fill="#a7aabc"/>
      <path id="Path_115827" data-name="Path 115827" d="M7.1,0H3.278a.833.833,0,0,0-.8.6L.983,5.833H5.928Z" transform="translate(-0.778 0)" fill="#a7aabc"/>
      <path id="Path_115828" data-name="Path 115828" d="M38.013,0H34.046L32.879,5.833h6.3Z" transform="translate(-26.029 0)" fill="#a7aabc"/>
      <path id="Path_115829" data-name="Path 115829" d="M19,45.575a2.49,2.49,0,0,1-1.667-.638,2.49,2.49,0,0,1-1.667.638h-5A2.49,2.49,0,0,1,9,44.937a2.49,2.49,0,0,1-1.667.638h-2.5A2.484,2.484,0,0,1,4,45.429v9.313a.833.833,0,0,0,.833.833H6.5v-7.5a.833.833,0,0,1,.833-.833H11.5a.833.833,0,0,1,.833.833v7.5H21.5a.833.833,0,0,0,.833-.833V45.429a2.484,2.484,0,0,1-.833.146Zm.833,5a.833.833,0,0,1-.833.833H14.833A.833.833,0,0,1,14,50.575v-2.5a.833.833,0,0,1,.833-.833H19a.833.833,0,0,1,.833.833Z" transform="translate(-3.167 -35.575)" fill="#a7aabc"/>
    </g>
  </g>
</svg>
