<svg id="envelope" xmlns="http://www.w3.org/2000/svg" width="20" height="20" viewBox="0 0 20 20">
  <path id="Path_115820" data-name="Path 115820" d="M18.7,5.7l-1.2-.682V2.609A2.559,2.559,0,0,0,15,0H5A2.559,2.559,0,0,0,2.5,2.609V5.017L1.3,5.7A2.624,2.624,0,0,0,0,7.99v9.4A2.559,2.559,0,0,0,2.5,20h15A2.559,2.559,0,0,0,20,17.391V7.99A2.625,2.625,0,0,0,18.7,5.7ZM1.667,9.076V7.99A.875.875,0,0,1,2.1,7.226L2.5,7V9.53Zm7.847,4.277L4.167,10.438V2.609A.853.853,0,0,1,5,1.739H15a.853.853,0,0,1,.833.87v7.83l-5.345,2.913a1.036,1.036,0,0,1-.974,0Zm8.819-4.277L17.5,9.53V7l.4.227a.878.878,0,0,1,.434.764Z" fill="#a7aabc"/>
  <path id="Path_115821" data-name="Path 115821" d="M9.5,10.85A1.5,1.5,0,0,1,8,9.353a1.469,1.469,0,0,1,.721-1.27.5.5,0,0,1,.5.862A.463.463,0,0,0,9,9.353a.5.5,0,0,0,1,0,.392.392,0,0,0-.042-.186.5.5,0,1,1,.882-.467,1.385,1.385,0,0,1,.158.653A1.5,1.5,0,0,1,9.5,10.85Z" transform="translate(-0.662 -0.85)" fill="#a7aabc"/>
  <path id="Path_115822" data-name="Path 115822" d="M13.486,8.763a.508.508,0,0,1-.14-.02L6.359,6.7A.5.5,0,0,1,6,6.219v-1a.5.5,0,0,1,.362-.48l6.987-2a.5.5,0,0,1,.636.48v5.04a.5.5,0,0,1-.5.5Z" transform="translate(0.008 0.636)" fill="#a7aabc"/>
  <path id="Path_115823" data-name="Path 115823" d="M17,8.879a.5.5,0,0,1-.5-.5V2.724a.5.5,0,1,1,1,0V8.38A.5.5,0,0,1,17,8.879Z" transform="translate(-3.506 0.803)" fill="#a7aabc"/>
  <path id="Path_115824" data-name="Path 115824" d="M6.5,7.887a.5.5,0,0,1-.5-.5V5.724a.5.5,0,1,1,1,0V7.388A.5.5,0,0,1,6.5,7.887Z" transform="translate(0.008 -0.018)" fill="#a7aabc"/>
</svg>
