<svg xmlns="http://www.w3.org/2000/svg" width="20.003" height="20" viewBox="0 0 20.003 20">
  <path id="video-player" d="M20,10.714A1.665,1.665,0,0,0,18.392,9H1.611A1.665,1.665,0,0,0,0,10.714V27.286A1.665,1.665,0,0,0,1.611,29H18.392A1.665,1.665,0,0,0,20,27.286Zm-13.895.429H8.995v2.429H6.108ZM4.095,26.857H2.014V24.429H4.095Zm0-13.286H2.014V11.143H4.095Zm4.9,13.286H6.108V24.429H8.995Zm-.738-5.878V17.021c0-.589.394-.807.857-.485l2.7,1.877a.669.669,0,0,1,0,1.174L9.112,21.464C8.648,21.786,8.256,21.568,8.256,20.979Zm5.638,5.878H11.008V24.429h2.886Zm0-13.286H11.008V11.143h2.886Zm4.095,13.286H15.908V24.429h2.081Zm0-13.286H15.908V11.143h2.081Z" transform="translate(0 -9)" fill="#a7aabc"/>
</svg>
