<svg xmlns="http://www.w3.org/2000/svg" xmlns:xlink="http://www.w3.org/1999/xlink" width="22.898" height="22.898" viewBox="0 0 22.898 22.898">
  <defs>
    <clipPath id="clip-path">
      <path id="path2088" d="M0-682.665H22.9v22.9H0Z" transform="translate(0 682.665)"/>
    </clipPath>
  </defs>
  <g id="g2082" transform="translate(0 682.665)" opacity="0.999">
    <g id="g2084" transform="translate(0 -682.665)">
      <g id="g2086" clip-path="url(#clip-path)">
        <g id="g2092" transform="translate(11.814 5.434)">
          <path id="path2094" d="M0-15.47a1.91,1.91,0,0,1,2.037-.384c.585.261,1.035.825,1.668.924" transform="translate(0 16.007)" fill="none" stroke="#0280ff" stroke-linecap="round" stroke-linejoin="round" stroke-width="1.1"/>
        </g>
        <g id="g2096" transform="translate(12.134 6.883)">
          <path id="path2098" d="M0-.031A2.337,2.337,0,0,1,2.131,1.751a5.22,5.22,0,0,0,.847,2.055" transform="translate(0 0.032)" fill="none" stroke="#0280ff" stroke-linecap="round" stroke-linejoin="round" stroke-width="1.1"/>
        </g>
        <g id="g2100" transform="translate(10.64 4.189)">
          <path id="path2102" d="M0-46.2a4.173,4.173,0,0,0,1.022-1.2q.122-.208.212-.4" transform="translate(0 47.8)" fill="none" stroke="#0280ff" stroke-linecap="round" stroke-linejoin="round" stroke-width="1.1"/>
        </g>
        <g id="g2104" transform="translate(4.747 1.362)">
          <path id="path2106" d="M-43.752-127.664a4.173,4.173,0,0,1-1.022-1.2c-.791-1.346-.547-2.3.107-2.872a1.105,1.105,0,0,1,1.4-.185.927.927,0,0,0,.974.033,1.426,1.426,0,0,1,.729-.206,1.424,1.424,0,0,1,.729.206.928.928,0,0,0,.975-.033,1.105,1.105,0,0,1,1.4.185,1.72,1.72,0,0,1,.565.945" transform="translate(45.27 132.094)" fill="none" stroke="#0280ff" stroke-linecap="round" stroke-linejoin="round" stroke-width="1.1"/>
        </g>
        <g id="g2108" transform="translate(9.238 3.97)">
          <path id="path2110" d="M0-52.511a5.976,5.976,0,0,0,.251-.882,7.419,7.419,0,0,0,.142-.941" transform="translate(0 54.333)" fill="none" stroke="#0280ff" stroke-linecap="round" stroke-linejoin="round" stroke-width="1.1"/>
        </g>
        <g id="g2112" transform="translate(7.275 3.97)">
          <path id="path2114" d="M0,0A7.333,7.333,0,0,0,.142.941a5.921,5.921,0,0,0,.251.882" fill="none" stroke="#0280ff" stroke-linecap="round" stroke-linejoin="round" stroke-width="1.1"/>
        </g>
        <g id="g2116" transform="translate(10.941 7.548)">
          <path id="path2118" d="M0,0S5.629,6.733,5.629,9.464c0,.063,0,.126,0,.187" fill="none" stroke="#0280ff" stroke-linecap="round" stroke-linejoin="round" stroke-width="1.1"/>
        </g>
        <g id="g2120" transform="translate(0.335 11.061)">
          <path id="path2122" d="M-347.834-301.818h-7.909a4.535,4.535,0,0,1-4.163-4.525c0-1.409,1.5-3.885,2.95-5.95" transform="translate(359.906 312.293)" fill="none" stroke="#0280ff" stroke-linecap="round" stroke-linejoin="round" stroke-width="1.1"/>
        </g>
        <g id="g2124" transform="translate(4.219 7.548)">
          <path id="path2126" d="M-50.3,0s-.773.924-1.746,2.227" transform="translate(52.043)" fill="none" stroke="#0280ff" stroke-linecap="round" stroke-linejoin="round" stroke-width="1.1"/>
        </g>
        <g id="g2128" transform="translate(6.757 11.687)">
          <path id="path2130" d="M0,0H1.177A1.325,1.325,0,0,1,2.5,1.325V1.36A1.368,1.368,0,0,1,1.136,2.733h-.7a.212.212,0,0,0-.166.344L2.321,5.654" transform="translate(0 0)" fill="none" stroke="#0280ff" stroke-linecap="round" stroke-linejoin="round" stroke-width="1.1"/>
        </g>
        <g id="g2132" transform="translate(7.482 11.687)">
          <path id="path2134" d="M0,0H2.667" fill="none" stroke="#0280ff" stroke-linecap="round" stroke-linejoin="round" stroke-width="1.1"/>
        </g>
        <g id="g2136" transform="translate(6.757 13.054)">
          <path id="path2138" d="M0,0H3.391" fill="none" stroke="#0280ff" stroke-linecap="round" stroke-linejoin="round" stroke-width="1.1"/>
        </g>
        <g id="g2140" transform="translate(4.745 5.793)">
          <path id="path2142" d="M0-25.286a.878.878,0,0,0,.878.878H6.539a.878.878,0,0,0,.878-.878.878.878,0,0,0-.878-.878H.878A.878.878,0,0,0,0-25.286Z" transform="translate(0 26.164)" fill="none" stroke="#0280ff" stroke-linecap="round" stroke-linejoin="round" stroke-width="1.1"/>
        </g>
        <g id="g2144" transform="translate(10.911 19.367)">
          <path id="path2146" d="M-31.242,0a1.084,1.084,0,0,0-1.084,1.084,1.084,1.084,0,0,0,1.084,1.084h5.857A1.084,1.084,0,0,0-24.3,1.084,1.084,1.084,0,0,0-25.386,0" transform="translate(32.327)" fill="none" stroke="#0280ff" stroke-linecap="round" stroke-linejoin="round" stroke-width="1.1"/>
        </g>
        <g id="g2148" transform="translate(10.911 17.199)">
          <path id="path2150" d="M-231.15-29.226c0,.023,0,.047,0,.07a1.084,1.084,0,0,1-1.084,1.084h-5.856a1.084,1.084,0,0,1-1.084-1.084,1.084,1.084,0,0,1,1.084-1.085h5.856a1.079,1.079,0,0,1,.6.182" transform="translate(239.173 30.24)" fill="none" stroke="#0280ff" stroke-linecap="round" stroke-linejoin="round" stroke-width="1.1"/>
        </g>
        <g id="g2152" transform="translate(17.465 14.295)">
          <path id="path2154" d="M-73.286-41.575l-.52-.9a1.084,1.084,0,0,0-1.481-.4,1.084,1.084,0,0,0-.4,1.481l2.928,5.072a1.084,1.084,0,0,0,1.481.4,1.084,1.084,0,0,0,.4-1.481L-72.5-40.219" transform="translate(75.829 43.018)" fill="none" stroke="#0280ff" stroke-linecap="round" stroke-linejoin="round" stroke-width="1.1"/>
        </g>
      </g>
    </g>
  </g>
</svg>
