<svg id="profile" xmlns="http://www.w3.org/2000/svg" width="20" height="20" viewBox="0 0 20 20">
  <circle id="Ellipse_3205" data-name="Ellipse 3205" cx="4.348" cy="4.348" r="4.348" transform="translate(3.532)" fill="#0280ff"/>
  <path id="Path_187530" data-name="Path 187530" d="M10.03,19.652a2.18,2.18,0,0,1,.177-2.435,2.179,2.179,0,0,1-.177-2.435l.7-1.217a2.18,2.18,0,0,1,1.883-1.087,2.214,2.214,0,0,1,.314.023,2.258,2.258,0,0,1,.1-.206A4.1,4.1,0,0,0,11.522,12H4.13A4.135,4.135,0,0,0,0,16.13v3.043a.652.652,0,0,0,.652.652H10.13Z" transform="translate(0 -1.565)" fill="#0280ff"/>
  <path id="Path_187531" data-name="Path 187531" d="M20.594,17.756a3.16,3.16,0,0,0,.041-.408,3.3,3.3,0,0,0-.041-.408l.783-.593a.435.435,0,0,0,.114-.564l-.7-1.217a.435.435,0,0,0-.545-.183l-.9.38a3.231,3.231,0,0,0-.712-.423l-.12-.957A.435.435,0,0,0,18.077,13H16.671a.435.435,0,0,0-.431.381l-.12.957a3.244,3.244,0,0,0-.712.423l-.9-.38a.434.434,0,0,0-.545.183l-.7,1.217a.435.435,0,0,0,.114.564l.783.593a3.16,3.16,0,0,0-.041.408,3.3,3.3,0,0,0,.041.408l-.783.593a.435.435,0,0,0-.114.564l.7,1.218a.435.435,0,0,0,.545.183l.9-.381a3.231,3.231,0,0,0,.712.423l.12.957a.434.434,0,0,0,.43.381h1.406a.435.435,0,0,0,.431-.381l.12-.957a3.245,3.245,0,0,0,.712-.423l.9.38a.434.434,0,0,0,.545-.183l.7-1.218a.435.435,0,0,0-.114-.564Zm-3.22,1.331a1.739,1.739,0,1,1,1.739-1.739A1.739,1.739,0,0,1,17.374,19.087Z" transform="translate(-1.549 -1.696)" fill="#0280ff"/>
</svg>
