<svg xmlns="http://www.w3.org/2000/svg" width="15.997" height="16" viewBox="0 0 15.997 16">
  <path id="share-5" d="M12.988,10.762a3.216,3.216,0,0,0-2.225.858L5.811,8.95a2.3,2.3,0,0,0,0-1.9L10.764,4.38a3.217,3.217,0,0,0,2.225.858A2.837,2.837,0,0,0,16,2.619,2.837,2.837,0,0,0,12.988,0,2.837,2.837,0,0,0,9.98,2.619a2.312,2.312,0,0,0,.206.95L5.233,6.239a3.217,3.217,0,0,0-2.225-.858A2.837,2.837,0,0,0,0,8a2.837,2.837,0,0,0,3.008,2.619,3.216,3.216,0,0,0,2.225-.858l4.953,2.67a2.313,2.313,0,0,0-.206.95A2.837,2.837,0,0,0,12.988,16,2.837,2.837,0,0,0,16,13.381,2.837,2.837,0,0,0,12.988,10.762ZM11.077,2.619A1.8,1.8,0,0,1,12.988.955,1.8,1.8,0,0,1,14.9,2.619a1.8,1.8,0,0,1-1.911,1.664A1.8,1.8,0,0,1,11.077,2.619ZM3.008,9.664A1.8,1.8,0,0,1,1.1,8,1.8,1.8,0,0,1,3.008,6.336,1.8,1.8,0,0,1,4.92,8,1.8,1.8,0,0,1,3.008,9.664Zm8.069,3.717a1.8,1.8,0,0,1,1.911-1.664A1.8,1.8,0,0,1,14.9,13.381a1.8,1.8,0,0,1-1.911,1.664A1.8,1.8,0,0,1,11.077,13.381Zm0,0"/>
</svg>
