<svg xmlns="http://www.w3.org/2000/svg" xmlns:xlink="http://www.w3.org/1999/xlink" width="38" height="38" viewBox="0 0 38 38">
  <defs>
    <filter id="Ellipse_9" x="0" y="0" width="38" height="38" filterUnits="userSpaceOnUse">
      <feOffset dy="3" input="SourceAlpha"/>
      <feGaussianBlur stdDeviation="3" result="blur"/>
      <feFlood flood-opacity="0.161"/>
      <feComposite operator="in" in2="blur"/>
      <feComposite in="SourceGraphic"/>
    </filter>
  </defs>
  <g id="Group_128370" data-name="Group 128370" transform="translate(-294 -58)">
    <g id="Group_13182" data-name="Group 13182" transform="translate(1405 3)">
      <g transform="matrix(1, 0, 0, 1, -1111, 55)" filter="url(#Ellipse_9)">
        <circle id="Ellipse_9-2" data-name="Ellipse 9" cx="10" cy="10" r="10" transform="translate(9 6)" fill="#fff"/>
      </g>
    </g>
    <g id="downloads" transform="translate(307.578 69)">
      <g id="Group_128368" data-name="Group 128368" transform="translate(0 0)">
        <g id="Group_128367" data-name="Group 128367" transform="translate(0 0)">
          <g id="Group_128366" data-name="Group 128366">
            <path id="Path_187864" data-name="Path 187864" d="M8.434,10.844H2.41A2.41,2.41,0,0,1,0,8.434v-.6a.6.6,0,1,1,1.2,0v.6a1.2,1.2,0,0,0,1.2,1.2H8.434a1.2,1.2,0,0,0,1.2-1.2v-.6a.6.6,0,1,1,1.2,0v.6a2.41,2.41,0,0,1-2.41,2.41ZM5.422,8.434A.6.6,0,0,1,5,8.263H5l-2.41-2.41A.6.6,0,1,1,3.438,5L4.819,6.377V.6a.6.6,0,0,1,1.2,0V6.377L7.406,5a.6.6,0,0,1,.852.852l-2.41,2.41H5.843l-.02.019a.6.6,0,0,1-.166.105h0a.6.6,0,0,1-.233.047Z" transform="translate(0 0)"/>
          </g>
        </g>
      </g>
    </g>
  </g>
</svg>
